<?xml version="1.0" encoding="utf-8"?>
<!-- Generator: Adobe Illustrator 25.1.0, SVG Export Plug-In . SVG Version: 6.00 Build 0)  -->
<svg version="1.1" id="Layer_1" xmlns="http://www.w3.org/2000/svg" xmlns:xlink="http://www.w3.org/1999/xlink" x="0px" y="0px"
	 viewBox="0 0 298.7 152.2" style="enable-background:new 0 0 298.7 152.2;" xml:space="preserve">
<style type="text/css">
	.st0{fill:#FFFFFF;}
</style>
<g>
	<path class="st0" d="M104.6,26.8L201.9,0v49.4c0,0-15.2-26.6-46.5-26.6c-14.6,0-24.7,7.7-24.7,18.2c0,8.8,9.6,19.3,29.2,19.3
		c20.9,0,30.2-14.4,30.2-14.4v52c0-4.2-15.9-30.1-35.1-30.1c-7.6,0-12.8,5.1-12.8,13.2c0,26.9,37.5,43.3,37.5,43.3h-71.8
		c0,0,25.2-12.4,25.2-39.2C133.1,51.3,104.6,26.8,104.6,26.8z"/>
	<g>
		<path class="st0" d="M255.6,4.3c-25.1,7.4-49.1,15.6-49.1,15.6s16.9,14.9,16.9,42.6c0,43.4-37.4,61.7-37.4,61.7h78.9
			c0,0-30.5-17.7-33.8-52.1c0,0,11.2,12.7,28.4,12.7c24.5,0,39.2-23.7,39.2-44.7c0-21.6-10.5-37.9-30.1-37.9
			C264.7,2.2,260.4,2.9,255.6,4.3z M247,74c-7,0-11-8-11-19c0-25.9,17.6-45.6,28.1-45.6c9.1,0,12.8,9,12.8,17.8
			C276.9,53.4,259.3,74,247,74z"/>
	</g>
	<path class="st0" d="M72.2,152.2l39.4-40c-18.2,5.5-34.7-2.5-34.7-13.3c0-12,21.7-32.4,21.7-63.3c0-21.8-15.3-32.9-28.5-32.9
		C23.3,2.7,0,57,0,89.4c0,18.5,9.4,32.9,28,32.9c15.3,0,26.3-14.3,37.5-14.3C76.7,107.9,81.7,128.8,72.2,152.2z M34.6,111.8
		c-9.8,0.1-15.6-10.2-15.7-29.5C18.6,41.9,42.2,11,58,10.8c13.1-0.1,18.1,13.9,18.2,27.7C76.5,76.2,53.8,111.7,34.6,111.8z"/>
</g>
</svg>
