<?xml version="1.0" encoding="utf-8"?>
<!-- Generator: Adobe Illustrator 25.1.0, SVG Export Plug-In . SVG Version: 6.00 Build 0)  -->
<svg version="1.1" id="Layer_1" xmlns="http://www.w3.org/2000/svg" xmlns:xlink="http://www.w3.org/1999/xlink" x="0px" y="0px"
	 viewBox="0 0 325.6 148.6" style="enable-background:new 0 0 325.6 148.6;" xml:space="preserve">
<g>
	<path d="M114.3,28.9L220.6,1.1v49.4c0,0-29.2-37.7-61.2-29.4c-9.8,2.5-16.7,9.5-16.7,19.4c0,11.3,11.8,22.6,27.7,22.6
		c25.1,0,27.5-19.6,27.5-19.6v51c-11-22.5-40.6-36.5-49.3-25c-10.3,13.6,12.6,43.7,45.7,53.7h-86.5
		C107.8,123.1,179.8,106.6,114.3,28.9z"/>
	<path d="M52.4,148.6l63.3-36.2c-29.9,3.7-36.4-2-36.4-13.1c0-15.7,24.8-33.6,24.8-67.8c0-44-52.6-40.2-82.7,1.2
		C-1.8,64.7-6.5,102.6,8.9,118c20.4,20.4,43.2-9.8,58.6-9.4C78,109,83.9,119.5,52.4,148.6z M74.3,67.9c-11,37-29,47.3-38.5,44.8
		c-15.5-4.1-20.8-33-10-65.6C36.3,15.4,57.3,4.4,68,12C79.7,20.3,82.4,40.9,74.3,67.9z"/>
	<path d="M281.2,3.2C228,18.8,228,18.8,228,18.8s35.1,28.4,14.4,67.2c-17,31.8-42.3,37.1-42.3,37.1h94.4c0,0-34.5-17.7-37.8-52.1
		c0,0,18.8,20.8,45.3,9.1c14.2-6.3,22.9-24.6,23.5-40.6C326.6,16.4,312.6-6,281.2,3.2z M296.6,44.9C289.1,70,277,77,270.5,75.2
		c-10.5-2.8-14.1-22.3-6.8-44.4C270.8,9.3,285.1,1.9,292.3,7C300.2,12.7,302,26.6,296.6,44.9z"/>
</g>
</svg>
