<?xml version="1.0" encoding="utf-8"?>
<!-- Generator: Adobe Illustrator 23.0.3, SVG Export Plug-In . SVG Version: 6.00 Build 0)  -->
<svg version="1.1" id="Layer_1" xmlns="http://www.w3.org/2000/svg" xmlns:xlink="http://www.w3.org/1999/xlink" x="0px" y="0px"
	 viewBox="0 0 241.2 196" style="enable-background:new 0 0 241.2 196;" xml:space="preserve">
<style type="text/css">
	.st0{fill:#020201;}
</style>
<g>
	<path d="M241.2,23.2c-8.9,3.9-18.4,6.6-28.4,7.8c10.2-6.1,18.1-15.8,21.8-27.4c-9.6,5.7-20.1,9.8-31.4,12C194.1,6,181.2,0,167,0
		c-27.3,0-49.5,22.2-49.5,49.5c0,3.9,0.4,7.7,1.3,11.3C77.7,58.7,41.2,39,16.8,9.1c-4.3,7.3-6.7,15.8-6.7,24.9
		c0,17.2,8.7,32.3,22,41.2c-8.1-0.3-15.7-2.5-22.4-6.2c0,0.2,0,0.4,0,0.6c0,24,17.1,44,39.7,48.5c-4.2,1.1-8.5,1.7-13,1.7
		c-3.2,0-6.3-0.3-9.3-0.9c6.3,19.7,24.6,34,46.2,34.4c-16.9,13.3-38.3,21.2-61.5,21.2c-4,0-7.9-0.2-11.8-0.7
		c21.9,14,47.9,22.2,75.8,22.2c91,0,140.8-75.4,140.8-140.8c0-2.1,0-4.3-0.1-6.4C226.2,41.8,234.5,33.1,241.2,23.2z"/>
</g>
</svg>
