<?xml version="1.0" encoding="utf-8"?>
<!-- Generator: Adobe Illustrator 23.0.3, SVG Export Plug-In . SVG Version: 6.00 Build 0)  -->
<svg version="1.1" id="Layer_1" xmlns="http://www.w3.org/2000/svg" xmlns:xlink="http://www.w3.org/1999/xlink" x="0px" y="0px"
	 viewBox="0 0 107.4 230" style="enable-background:new 0 0 107.4 230;" xml:space="preserve">
<style type="text/css">
	.st0{fill:#020201;}
</style>
<g id="_x23_020201ff">
	<path class="st0" d="M35.4,11.8c9-8.5,21.7-11.4,33.8-11.8C81.9,0,94.6,0,107.3,0c0.1,13.4,0.1,26.9,0,40.3c-8.2,0-16.5,0-24.7,0
		c-5.2-0.3-10.6,3.6-11.5,8.8c-0.1,9,0,18,0,27c12.1,0,24.1,0,36.2,0c-0.9,13-2.5,25.9-4.4,38.8c-10.7,0.1-21.3,0-32,0.1
		c-0.1,38.3,0,76.7-0.1,115c-15.8,0.1-31.7,0-47.5,0c-0.3-38.3,0-76.7-0.2-115c-7.7-0.1-15.4,0.1-23.2-0.1C0,102,0,89.1,0,76.2
		c7.7-0.1,15.4,0,23.2-0.1c0.2-12.5-0.2-25.1,0.2-37.6C24.2,28.7,28,18.7,35.4,11.8z"/>
</g>
</svg>
