<?xml version="1.0" encoding="utf-8"?>
<!-- Generator: Adobe Illustrator 23.0.3, SVG Export Plug-In . SVG Version: 6.00 Build 0)  -->
<svg version="1.1" id="Layer_1" xmlns="http://www.w3.org/2000/svg" xmlns:xlink="http://www.w3.org/1999/xlink" x="0px" y="0px"
	 viewBox="0 0 240 240" style="enable-background:new 0 0 240 240;" xml:space="preserve">
<style type="text/css">
	.st0{fill:#020201;}
</style>
<path d="M165,240c-30,0-60,0-90,0c-5.9-0.7-11.9-1.2-17.8-2c-28-4-47.5-21.6-53.9-48.9C1.6,181.2,1.1,173,0,165c0-30,0-60,0-90
	c0.7-5.9,1.2-11.9,2-17.8c4-28,21.6-47.5,48.9-53.9C58.8,1.6,67,1.1,75,0c30,0,60,0,90,0c5.9,0.7,11.9,1.2,17.8,2
	c28,4,47.5,21.6,53.9,48.9c1.8,7.9,2.3,16,3.4,24.1c0,30,0,60,0,90c-0.7,5.9-1.2,11.9-2,17.8c-4,28-21.6,47.5-48.9,53.9
	C181.2,238.4,173,238.9,165,240z M218.7,120.3c-0.5-18.2-0.5-36.3-1.7-54.4c-1.8-26.2-16.8-42-43-42.8c-36.3-1.1-72.6-1-108.8,0.1
	c-25.1,0.7-41.2,16.9-42,42c-1.1,36.3-1.1,72.6-0.1,108.8c0.8,26.1,16.7,42,42.8,42.8c35.9,1.1,71.9,1.1,107.8,0
	c26.2-0.8,41.4-16.6,43.1-42.6C218.2,156.3,218.2,138.3,218.7,120.3z"/>
<path d="M58.2,119.6c0.2-34,28.1-61.5,62.1-61.4c34.1,0.1,61.8,28.3,61.5,62.4c-0.3,33.9-28.3,61.4-62.3,61.1
	C85.5,181.5,58,153.6,58.2,119.6z M159.9,120.2c0-22.1-17.8-40-40-40.1c-21.8,0-39.7,17.8-39.8,39.7c-0.1,21.8,17.7,39.9,39.5,40.1
	C141.8,160,159.8,142.2,159.9,120.2z"/>
<path d="M184,70.1c-8.2,0-14.3-5.9-14.4-14c-0.1-8.3,6.2-14.6,14.5-14.5c8.2,0,14.2,6,14.3,14.2C198.5,64.2,192.6,70.1,184,70.1z"/>
</svg>
