<svg id="Layer_1" data-name="Layer 1" xmlns="http://www.w3.org/2000/svg" viewBox="0 0 370.77 370.77"><title>RISD-Seal</title><path d="M184.52,362.35A177,177,0,1,0,8.42,184.52a177,177,0,0,0,176.1,177.83M0,184.48C.5,82.1,83.91-.5,186.29,0s185,83.91,184.48,186.29-83.91,185-186.29,184.48S-.5,286.86,0,184.48"/><path d="M184.79,306.11c66.67.32,121-55.36,121.32-120.14C306.44,117.4,252.64,65,186,64.66S65,116.22,64.66,184.79c-.32,64.78,53.45,121,120.13,121.32M55.52,184.75a129.86,129.86,0,1,1,129.23,130.5A129.87,129.87,0,0,1,55.52,184.75"/><path d="M141.84,33.21a4.43,4.43,0,0,1,2.2,2.62,4.54,4.54,0,0,1-8.58,3,4.64,4.64,0,0,1,.19-3.56A4.42,4.42,0,0,1,138.31,33a4.52,4.52,0,0,1,3.53.17"/><path d="M63,260.84c-.56,2.81-2.85,5.74-6.27,8-6.21,4.14-11.56,4.14-14.31,0A6.23,6.23,0,0,1,41.31,265c.2-3.9,4.24-7.27,7.11-9.19,5.9-3.93,11-3.9,13.65.07a6.37,6.37,0,0,1,1,5m3.23-7.41a17.1,17.1,0,0,0-10.78-7.52,16.33,16.33,0,0,0-12.4,2.75c-8.33,5.55-10,14.25-4.37,22.71a16.77,16.77,0,0,0,10.55,7.37A16.56,16.56,0,0,0,61.85,276,15.92,15.92,0,0,0,69,265.83a16.46,16.46,0,0,0-2.71-12.4"/><path d="M29.44,237.36A29.8,29.8,0,0,1,28,234h0a8.26,8.26,0,0,1-.53-3.32,7.5,7.5,0,0,1,.7-2.8c1.19-2.54,3.8-4.59,7.56-5.92,7-2.49,11.77-1.21,13.49,3.6a10.64,10.64,0,0,1,.69,3.64,1.46,1.46,0,0,1-.29.94c-.41.43-2,1.08-9.18,3.62-4.91,1.75-8.56,2.88-10.95,3.6m24.9,1a4.55,4.55,0,0,1,3.06.78.75.75,0,0,0,1-.08.7.7,0,0,0,.15-.83s-.92-1.82-.92-1.82a30.85,30.85,0,0,1-1.81-3.91,25.19,25.19,0,0,1-.75-2.87,39.76,39.76,0,0,0-1.4-5.14c-1.7-4.85-4.66-8.41-8.57-10.28s-8.28-1.89-13-.22c-4.42,1.57-7.42,4-8.91,7.09-1.72,3.62-1.51,8.3.62,14.29.57,1.58,1.26,3.2,1.93,4.76l1.46,3.51a29,29,0,0,1,1.41,5c0,.32.33.55.8.59s.85-.11.93-.47a4.18,4.18,0,0,1,1.92-2.64,67.78,67.78,0,0,1,10.43-4.52c5.18-1.85,9.75-3.11,11.65-3.22"/><path d="M39.65,184.65a1.24,1.24,0,0,0-.11.43.77.77,0,0,0,.25.64h0c1.87,1.31,2.63,2.64,3.14,7.53a22.53,22.53,0,0,1,.16,3.48c-.08,1.42-.38,1.86-.61,2A42.29,42.29,0,0,1,35,200a58.67,58.67,0,0,1-.35-7.23,3.62,3.62,0,0,1,.51-2.14.69.69,0,0,0,.14-.39,1.46,1.46,0,0,0-.24-.8c-.27-.38-.54-.35-.65-.31a13.71,13.71,0,0,1-2.93.54,20.68,20.68,0,0,1-2.89,0,.43.43,0,0,0-.45.31,1.24,1.24,0,0,0-.07.43,1,1,0,0,0,.2.79c.7.71,1.69,3.54,2.32,9.26-2.87.29-6.18.5-8.47.61l-.13-.76-.42-2.92a13,13,0,0,1-.07-2.23c.11-2.17.77-3.93,1.83-4.71a.56.56,0,0,0,.21-.43,1.16,1.16,0,0,0-.13-.54c-.18-.36-.46-.53-.73-.45-.95.16-3.18.39-4,.42l-1.45-.11-.86-.12a.87.87,0,0,0-.76.33.8.8,0,0,0-.06.77c.54,1.32,1.42,5.66,2.29,13.92a61.68,61.68,0,0,1,.36,7.38c0,.2.07.51.57.68s.91.12,1.08-.23a4.15,4.15,0,0,1,2.48-2,59.46,59.46,0,0,1,11.2-2c5.48-.58,10.22-.73,12.09-.38a4.89,4.89,0,0,1,2.8,1.48.73.73,0,0,0,.87.19.82.82,0,0,0,.45-.7,24.38,24.38,0,0,0-.72-3.48,20.06,20.06,0,0,1-.61-2.85l-.22-4.26c-.1-2.51-.22-5.64-.45-7.81-.35-3.32-.85-4.23-1.5-4.57-1.13-.67-2.83-1.09-5.87-1.45a.62.62,0,0,0-.67.42"/><path d="M27.6,173.06a4.52,4.52,0,0,0-1.44,3.22,4.41,4.41,0,0,0,1.08,3.28A4.59,4.59,0,0,0,30.48,181a4.32,4.32,0,0,0,4.5-4.21,4.74,4.74,0,0,0-1.13-3.45,4.28,4.28,0,0,0-3-1.41,4.41,4.41,0,0,0-3.25,1.1"/><path d="M19.17,154.24c-.28.08-1,.44-.87.83v0a30.51,30.51,0,0,1-.41,5.35,29.54,29.54,0,0,1-1.22,5.54c-.13.29,0,.64.44.88s.81.31,1,0a4.22,4.22,0,0,1,2.93-1.43,74.69,74.69,0,0,1,11.31,1c4.72.68,10.47,1.73,11.94,2.43a3.07,3.07,0,0,1,1.77,1.75l0,.08c.11.26.46.39.93.33.21,0,.71-.13.76-.48,0,0,.14-2.35.14-2.35l.26-3.74c.2-1.38.78-3.66,1.27-5.48a.76.76,0,0,0-.41-.85,1,1,0,0,0-1.12,0,4.32,4.32,0,0,1-3.1,1.68c-1.77.15-5.32-.17-11.49-1.06-4.32-.63-8.85-1.53-10.56-2a4,4,0,0,1-2.9-2.22.55.55,0,0,0-.74-.28"/><path d="M25.86,128.52a.91.91,0,0,0-.58.69h0a13.09,13.09,0,0,1-1.15,3.52,32.82,32.82,0,0,0-1.31,3.51c-1.29,4.47-1.21,7.37.25,10a8,8,0,0,0,4.74,3.8c4,1.16,7.44,0,10.78-3.63,3.92-4.25,5.74-4.74,7.75-4.17A2.71,2.71,0,0,1,48,143.57a5.06,5.06,0,0,1,.26,3.75,6.9,6.9,0,0,1-6.11,5.34.64.64,0,0,0-.63.61c0,.39.12,1,.47,1.15h.08a11.64,11.64,0,0,1,2.31.49A12.33,12.33,0,0,1,48.17,157a1.09,1.09,0,0,0,1.06,0,.6.6,0,0,0,.34-.48,20.6,20.6,0,0,1,1.46-4.3,35.49,35.49,0,0,0,1.51-4.06c2.07-7.19-.07-12.45-5.72-14.08-3.5-1-6.77.29-10.29,4.08-3,3.26-5,4.79-7.3,4.11a3.06,3.06,0,0,1-1.91-1.46,4.72,4.72,0,0,1-.19-3.55c.87-3,2.6-4.6,5-4.59.2,0,.49-.1.59-.58s0-1.06-.41-1.19l-.71-.1-1.41-.26a7.51,7.51,0,0,1-3.55-1.86.7.7,0,0,0-.79-.19"/><path d="M58.29,114.24a.81.81,0,0,0-.38.86h0c.83,2.46,1.31,3.29-.32,6.81-1,2.21-1.51,2.43-2.28,2.4s-3.69-1.2-9.3-3.88a91.67,91.67,0,0,1-9.41-5.15,4.63,4.63,0,0,1-2.08-3.12c0-.13-.19-.51-.85-.43,0,0-.86.13-.86.55a35.8,35.8,0,0,1-2.11,5.18,28.82,28.82,0,0,1-2.75,4.81c-.21.24-.16.62.15,1s.68.54,1,.33a4.49,4.49,0,0,1,3.22-.49c1.44.29,6.07,2.45,10.41,4.52,5,2.37,9.09,4.72,10.5,6a4.83,4.83,0,0,1,1.66,2.63.74.74,0,0,0,.64.61.77.77,0,0,0,.75-.37,24.77,24.77,0,0,0,1.18-3,26.11,26.11,0,0,1,1-2.46l1.47-3L62,123.76c1.4-2.93,1.67-3.79,1.1-4.68a36.67,36.67,0,0,0-3.9-4.93.75.75,0,0,0-.93.09"/><path d="M60.67,100.51c-1.22-1.62-4.29-5.78-6.28-8.92,3.34.73,7,1.76,10,2.62l.76.21-4.45,6.09m22.64-9.9c-.27-.29-.68-.55-1-.32a5.58,5.58,0,0,1-1.61.28c-1.54,0-7.43-1.56-12.49-3l-2.78-.79-2.39-.7c-4.54-1.32-7.53-2.2-12.72-4.1l-.25-.09-.11.25A48.21,48.21,0,0,1,45.79,89l-.13.18.15.17c2.64,3.08,5.87,7.49,10.55,14.05,3.83,5.3,6.65,9.53,7.21,10.56a4,4,0,0,1,.44,1.56c0,.26.25.46.69.53.16,0,.71.07.82-.28a16.73,16.73,0,0,1,1.87-3.24,12.84,12.84,0,0,1,1.91-2.22c.25-.23.17-.67,0-1s-.41-.56-.65-.52-.59-.08-1-.33a32.23,32.23,0,0,1-4.44-4.79l5.86-8a31.79,31.79,0,0,1,6,2.47,1.83,1.83,0,0,1,.87,1c0,.12.14.33.57.43.08,0,.74.17,1-.16a36.75,36.75,0,0,1,2.38-3.86c.78-1.06,2.21-2.4,3.66-3.92.19-.19.24-.56-.17-1"/><path d="M89.14,45.3l-.26.25a36,36,0,0,1-6.6,5c-.13.07-.31.26-.2.71.06.23.29.83.69.85a4,4,0,0,1,2.47.54c1.17.81,4.37,4.69,9.52,11.5-2.54.06-5.21,0-10.64-.27a92.85,92.85,0,0,1-14.84-2l-.18,0L69,62a43.4,43.4,0,0,1-6.14,6.42c-.22.2-.19.55.08,1,.15.23.45.6.76.46a4.36,4.36,0,0,1,1.94-.42c1.62.08,4,2,10.11,8.35a84,84,0,0,1,8,9.31,2.22,2.22,0,0,1,.35,1.77.72.72,0,0,0,.41.76.93.93,0,0,0,1.08,0s.8-1,.8-1a14.88,14.88,0,0,1,2.06-2.25l2.17-1.71,1-.73c.31-.28,0-.89,0-.92-.24-.48-.56-.47-.68-.44a4.28,4.28,0,0,1-2.23-.35c-1.34-.77-4.74-4.2-11-11,1,0,12,.72,12,.72l6,.25c3.49.16,7.1.33,10.2.35.45,0,.9-.54,1.08-.85a1.28,1.28,0,0,0,.18-.53.5.5,0,0,0-.08-.32c-1.7-2.29-3.1-3.93-4.82-6.06L98,59.12c-4.22-5.86-6.63-8.88-7.43-10.48a4.35,4.35,0,0,1-.32-1.77,1.61,1.61,0,0,1,.1-.51.83.83,0,0,0,0-.15,1.17,1.17,0,0,0-.56-.83c-.4-.28-.62-.17-.72-.08"/><path d="M122.06,56.86c-1.59,1-3.65,2-4.44,1.59-.54-.25-1.69-2-5.66-8.16-2.78-4.34-4.65-7.53-6-9.86a30.84,30.84,0,0,1,3.07-2.33,7.83,7.83,0,0,1,6-1.22c2.74.58,5.33,2.66,7.48,6,4.11,6.41,4,11.1-.47,14m7.37-19.23c-2.53-4-5.53-6.33-8.92-7.07-3.91-.86-8.42.39-13.78,3.83-1.41.91-2.82,2-4.19,3l-3.1,2.21a28.87,28.87,0,0,1-4.53,2.49c-.31.1-.47.46-.39.91s.3.82.67.8a4.21,4.21,0,0,1,3,1.24A70.45,70.45,0,0,1,105,54.18c3.19,4.93,5.58,9.65,5.76,10.6a5.32,5.32,0,0,1-.06,3.18.74.74,0,0,0,.3.92.69.69,0,0,0,.84,0l1.57-1.31a29,29,0,0,1,3.4-2.64,24.17,24.17,0,0,1,2.62-1.38A41,41,0,0,0,124.07,61c4.35-2.75,7.14-6.44,8.08-10.67s0-8.49-2.72-12.68"/><path d="M163.12,17h0a13.22,13.22,0,0,1-3.65.61,33.94,33.94,0,0,0-3.73.47c-4.55.94-7.08,2.35-8.74,4.86a8,8,0,0,0-1.16,6c.84,4.1,3.45,6.59,8.21,7.87,5.59,1.48,6.7,2.88,7.12,4.92s-1.55,3.61-3.62,4a6.63,6.63,0,0,1-7.38-2.94.66.66,0,0,0-.84-.27c-.37.14-.87.6-.8,1v0l0,0a10.74,10.74,0,0,1,.63,2.26,12.7,12.7,0,0,1,0,4.35,1.05,1.05,0,0,0,.45,1,.6.6,0,0,0,.58.08,20.66,20.66,0,0,1,4.49-.7,32.14,32.14,0,0,0,4.12-.55c4.14-.85,7.06-2.53,8.67-5a8.61,8.61,0,0,0,1.14-6.62c-.73-3.56-3.22-5.86-8.21-7.22-4.28-1.14-6.54-2.16-7-4.55-.42-2,.94-3.67,3.46-4.19,3.08-.63,5.29.17,6.39,2.3.07.19.32.39.79.25s.95-.48.86-.91l-.24-.68-.42-1.37a7.67,7.67,0,0,1,0-4,.68.68,0,0,0-.19-.78.88.88,0,0,0-.88-.2"/><path d="M197,15.85h0l-.51.06-1.19.08-2.83-.2-3.94-.26c-6.28-.15-10.1,1.18-13.46,4.33-2.81,2.67-4.29,6.61-4.42,11.7-.22,9.17,5.86,15.67,15.2,15.9,4.48.1,7.64-.68,8.78-1.51.71-.56,1.45-2.33,2.48-5.2,0-.12.06-.36-.33-.61s-.74-.33-1-.07c-1.39,1.45-4.13,2.26-7.36,2.18-6.2-.15-9.36-4.56-9.18-12.21.09-3.76,1.06-6.55,2.88-8.28a7.27,7.27,0,0,1,5.6-2.05c3.57.08,6.56,1.68,7.62,4.07.17.36.74.29,1.06.19.57-.18.58-.5.56-.63a17.06,17.06,0,0,1,.74-6.5.64.64,0,0,0-.05-.61.75.75,0,0,0-.61-.38"/><path d="M204.34,17a.65.65,0,0,0,0,.79l0,0a4.19,4.19,0,0,1,1.1,2.57c.08,1.36-1,7.07-1.78,11.24-1,4.88-2.33,10.5-3,12.05a3.67,3.67,0,0,1-2.2,1.88.77.77,0,0,0-.35.82c0,.35.19.59.42.65a22.34,22.34,0,0,0,3.4.44,22.57,22.57,0,0,1,2.49.29,25.64,25.64,0,0,1,3.06.88l2.59.78c.34.07.64-.26.78-.62a.92.92,0,0,0,.09-.38.53.53,0,0,0-.25-.52,4.45,4.45,0,0,1-1.31-2.79,7.32,7.32,0,0,1,0-1.16,64.1,64.1,0,0,1,1.38-8.24l6.76,1.43L224,38.69c-.41,1.85-2.39,8.32-2.8,9.35A3.08,3.08,0,0,1,219.41,50h0l0,0a.68.68,0,0,0-.26.57,2.05,2.05,0,0,0,.06.57c.12.44.37.51.51.52a31,31,0,0,1,5.43.75,33,33,0,0,1,3.4,1.2l1.2.46a.76.76,0,0,0,.89-.38,1.38,1.38,0,0,0,.23-.65.77.77,0,0,0-.18-.56l0,0,0,0a4.2,4.2,0,0,1-.88-2,4.3,4.3,0,0,1,0-1A75.64,75.64,0,0,1,232,37.61c1-3.69,2.53-9,3.19-10.52a3.1,3.1,0,0,1,1.66-1.89l.46-.28a.64.64,0,0,0,.3-.53,1.1,1.1,0,0,0,0-.25,1,1,0,0,0-.78-.74l-1.5-.19a21.32,21.32,0,0,1-3.23-.53l-1.2-.38-3.55-1.19a.73.73,0,0,0-.85.29.92.92,0,0,0-.18.49.79.79,0,0,0,.15.51,3.45,3.45,0,0,1,.75,2.45h0c-.05.93-1.34,6.65-2,9.33a49.33,49.33,0,0,1-5-1l-1.58-.37c-2-.46-5.55-1.27-7-1.71a76.56,76.56,0,0,1,2.58-9.66,3.42,3.42,0,0,1,1.52-1.63.67.67,0,0,0,.38-.59,1.28,1.28,0,0,0,0-.19.83.83,0,0,0-.71-.7l-1.77-.22c-1.09-.13-2.33-.27-3.59-.52l-.57-.1a21.43,21.43,0,0,1-4-1,1,1,0,0,0-1,.52"/><path d="M259,50.49c-3.16,6.35-7.6,8.86-11.88,6.73a6.38,6.38,0,0,1-3.31-3.83c-.92-2.72-.39-6.39,1.45-10.08,3.33-6.67,8-9.34,12.41-7.12,5.89,2.94,3.36,10.22,1.33,14.3m.68-18.32A16.75,16.75,0,0,0,246.81,31a16.49,16.49,0,0,0-9.52,8.67,17.35,17.35,0,0,0-1.89,6.89,14.74,14.74,0,0,0,.73,5.44,16.52,16.52,0,0,0,8.52,9.41C251.9,65,262,64.27,267.13,54c4.47-9,1.59-17.34-7.49-21.87"/><path d="M289.26,71.91c-4.63,5.36-9.56,6.69-13.17,3.56s-2.89-8.67,1.65-13.93c4.88-5.64,10-7.07,13.79-3.82,5,4.31.72,10.74-2.27,14.19M300.7,65.6c-.29-4.11-2.45-8-6.23-11.28A16.69,16.69,0,0,0,282.34,50a16.48,16.48,0,0,0-11.38,6,15.89,15.89,0,0,0-4.18,11.66A16.5,16.5,0,0,0,272.69,79a17.1,17.1,0,0,0,12.39,4.38,16.35,16.35,0,0,0,11.22-6c3.17-3.66,4.69-7.73,4.4-11.77"/><path d="M310.18,71.3c-.4.11-.77.38-.72.75v0a4.43,4.43,0,0,1-.93,3.14c-.88,1.18-4.81,4.44-8.55,7.47-4.27,3.48-8.16,6.19-9.91,6.92a4.83,4.83,0,0,1-3.08.38.74.74,0,0,0-.83.32.77.77,0,0,0,0,.83,26.94,26.94,0,0,0,2.19,2.35,20.54,20.54,0,0,1,1.81,1.92l2.17,2.94c1.24,1.75,2.79,3.92,4.18,5.62,2.05,2.52,2.71,3.14,3.76,3a36.43,36.43,0,0,0,6.12-1.41.76.76,0,0,0,.32-.88c-.06-.31-.26-.68-.61-.71-2.36-.29-3.74-1.06-6.83-4.85-1.56-1.93-2.06-3-1.72-3.64.43-.81,2.67-2.82,7.49-6.74a93.4,93.4,0,0,1,8.69-6.31,4.72,4.72,0,0,1,3.71-.54c.13,0,.54.06.75-.59,0,0,.26-.82-.12-1a35.35,35.35,0,0,1-3.78-4.12,28.63,28.63,0,0,1-3.17-4.55c-.13-.3-.5-.41-.95-.28"/><path d="M312.87,94.8a4.31,4.31,0,0,0-1.22,6,4.7,4.7,0,0,0,2.91,2.15,4.44,4.44,0,0,0,4.58-6.83,4.41,4.41,0,0,0-2.77-2,4.64,4.64,0,0,0-3.5.69"/><path d="M337.48,124c-1.05,2.61-4,5-8.38,6.91-6.51,2.79-11.52,1.84-13.41-2.55a6.42,6.42,0,0,1-.53-2.89c.18-3.43,3.12-6.78,8.1-8.92,4.09-1.76,7.79-2.15,10.41-1.1a6.6,6.6,0,0,1,3.67,3.68,6.21,6.21,0,0,1,.14,4.87m4-6.64a16,16,0,0,0-21.92-8.71c-6.1,2.62-9.63,7.68-9.93,13.49a17.7,17.7,0,0,0,1.49,7.86,17.11,17.11,0,0,0,9.24,9.35,16.31,16.31,0,0,0,12.7-.45c4.45-1.92,7.6-4.91,9.1-8.68s1.29-8.26-.68-12.86"/><path d="M347.94,141.39h0a4.22,4.22,0,0,1-2.31,2.31c-1.21.62-5.77,1.74-11.09,2.75s-10.12,1.55-12,1.36a4.46,4.46,0,0,1-2.71-1.12,1,1,0,0,0-1.11-.05c-.38.19-.38.44-.36.54a22.71,22.71,0,0,0,1,3.41,21,21,0,0,1,.83,2.79l.15,2a32.06,32.06,0,0,0,.36,3.91c0,.25.3.44.68.49a.79.79,0,0,0,.84-.31,4.38,4.38,0,0,1,2.2-2.61,45.76,45.76,0,0,1,7.85-2,39.42,39.42,0,0,1,.83,7.51,3.84,3.84,0,0,1-.6,2.17.56.56,0,0,0-.12.3,1.33,1.33,0,0,0,.26.72c.31.45.61.39.73.35a17.13,17.13,0,0,1,2.88-.78,13.51,13.51,0,0,1,3.16-.13.46.46,0,0,0,.49-.27,1.55,1.55,0,0,0,.13-.58.84.84,0,0,0-.15-.64c-1.21-.92-2.14-3.68-3.25-9.47,3.16-.59,7.81-1.3,9.86-1.57.08.3.22.87.22.87l.56,2.4a17.46,17.46,0,0,1,.32,4.08,7.42,7.42,0,0,1-1.5,4.51.73.73,0,0,0-.15.4,1,1,0,0,0,.2.62.57.57,0,0,0,.67.27,13.05,13.05,0,0,1,3.37-1,12.76,12.76,0,0,1,3.13-.06.63.63,0,0,0,.63-.27.82.82,0,0,0,.13-.89c-.58-1.12-1.83-5.56-3.49-14.4a58.93,58.93,0,0,1-.95-7.2c0-.32-.24-.6-.69-.7s-.86,0-1,.32"/><path d="M339.2,171.33a4.33,4.33,0,0,0-4,4.13,5,5,0,0,0,0,.55,4.74,4.74,0,0,0,1.51,3.31,4.5,4.5,0,1,0,2.51-8"/><path d="M349.59,198.61c0,.29,0,.56-.06.83a7.76,7.76,0,0,1-2.72,5.49c-2.14,1.81-5.37,2.57-9.34,2.21-7.38-.67-11.2-3.84-10.74-8.93.17-1.87.77-4,1.55-4.33.56-.22,2.31-.12,9.86.57,5.12.46,8.79.94,11.45,1.32,0,1.07,0,2,0,2.84m5-13.63c-.36-.2-.83-.26-1,0a4.21,4.21,0,0,1-2.85,1.58,67,67,0,0,1-11.37-.26c-5.48-.5-10.17-1.27-11.93-2a4.66,4.66,0,0,1-2.45-2,.73.73,0,0,0-.91-.34.7.7,0,0,0-.49.69v0l.07,2.07a30.9,30.9,0,0,1,0,4.31,25.24,25.24,0,0,1-.53,2.91,39.22,39.22,0,0,0-.87,5.27c-.5,5.11.7,9.58,3.47,12.92s6.73,5.19,11.68,5.64c4.68.42,8.4-.49,11.06-2.71,3.08-2.57,4.85-6.9,5.42-13.23.16-1.67.2-3.43.24-5.13l.15-3.8a29.9,29.9,0,0,1,.82-5.11c.11-.31-.07-.65-.48-.87"/><path d="M320.8,213.89a.79.79,0,0,0-.69.47h0a23.83,23.83,0,0,0-.7,3.48,19.44,19.44,0,0,1-.56,2.85l-1.47,4c-.89,2.35-1.6,3.73-2.24,5.82-1,3.18-.87,4.22-.41,4.78.77,1.06,2.18,2.12,4.83,3.65a.65.65,0,0,0,.78-.13.89.89,0,0,0,.29-1c-1.22-2-1.57-2.86-.13-7.56,1.27-4.12,1.92-3.87,2.33-3.92a41.24,41.24,0,0,1,7.45,1.75c-.89,2.81-2.63,8.14-3.81,8.57a.88.88,0,0,0-.4.77,1.37,1.37,0,0,0,0,.36c.09.46.36.53.47.54a14.06,14.06,0,0,1,2.9.65,20.78,20.78,0,0,1,2.67,1.13.44.44,0,0,0,.54-.12,1.66,1.66,0,0,0,.4-.93.38.38,0,0,0,0-.24,4.39,4.39,0,0,1-.14-1.7,35.31,35.31,0,0,1,1.64-7.72c2.75.85,5.87,2,8,2.76l-.19.78-.75,2.82c-.93,3.05-2.64,5.28-4.34,5.7a.69.69,0,0,0-.45.7v.16c0,.39.22.66.49.69.95.23,3.09.89,3.85,1.19l1.3.67.74.44a.84.84,0,0,0,.83,0,.82.82,0,0,0,.36-.69c0-1.42.91-5.76,3.35-13.7a59.17,59.17,0,0,1,2.56-6.93c.12-.17.13-.5-.26-.85s-.79-.47-1.08-.21a4.17,4.17,0,0,1-3.09.9,59.36,59.36,0,0,1-11.09-2.54c-5.27-1.62-9.69-3.34-11.27-4.38a4.87,4.87,0,0,1-2-2.47.74.74,0,0,0-.73-.51"/><path d="M313.08,238.11a.58.58,0,0,0-.43.4v0a19.85,19.85,0,0,1-2.27,4,32.59,32.59,0,0,0-2.17,3.6c-3.42,6.66-2.33,12.23,2.9,14.91,3.23,1.67,6.69,1,10.88-2,3.57-2.62,5.78-3.75,7.95-2.64a3.06,3.06,0,0,1,1.59,1.81,4.69,4.69,0,0,1-.49,3.52c-1.43,2.79-3.44,4-5.8,3.54-.19-.07-.5,0-.69.46s-.22,1,.18,1.24l.68.24,1.33.53a7.48,7.48,0,0,1,3.12,2.5.71.71,0,0,0,.74.34.87.87,0,0,0,.7-.57,13.06,13.06,0,0,1,1.8-3.21,32.2,32.2,0,0,0,2-3.2c2.12-4.14,2.61-7,1.68-9.86a8,8,0,0,0-3.92-4.65c-3.72-1.91-7.3-1.44-11.28,1.48-4.66,3.42-6.55,3.55-8.4,2.6a2.65,2.65,0,0,1-1.36-1.62,5.07,5.07,0,0,1,.47-3.73,6.7,6.7,0,0,1,6.94-4,.64.64,0,0,0,.73-.48c.13-.38.08-1.06-.24-1.22l0,0h0a11.18,11.18,0,0,1-2.16-.93,12.3,12.3,0,0,1-3.35-2.76,1.06,1.06,0,0,0-1-.24"/><path d="M301.41,259.12l-1.2,2.05-1.9,3.2c-.82,1.17-2.45,3-3.61,4.32a.76.76,0,0,0,0,.94,1,1,0,0,0,1,.51,4.37,4.37,0,0,1,3.53-.1c1.65.66,4.67,2.55,9.78,6.13,3.57,2.5,7.2,5.35,8.52,6.54A4,4,0,0,1,319.1,286c0,.22.11.51.54.59s1,0,1.15-.36a31.32,31.32,0,0,1,2.77-4.56,30,30,0,0,1,3.58-4.39c.25-.2.25-.59,0-1s-.58-.63-.92-.48a4.27,4.27,0,0,1-3.26,0,75,75,0,0,1-9.63-6c-3.9-2.73-8.56-6.26-9.57-7.55a3.1,3.1,0,0,1-.79-2.36v-.09c0-.28-.23-.56-.69-.72-.2-.06-.68-.19-.88.1"/><path d="M283.36,281.06h0a33.42,33.42,0,0,0-6.9,9.42l-1.13,2.07.15.17c2,2,5.47,5.42,6.59,6.67,1.2,1.41,1.64,2.23,1.61,3,0,.12,0,.54.74.69.19,0,.84.13,1-.23l0,.07.5-.82a9.58,9.58,0,0,1,1.83-2.32,24.31,24.31,0,0,1,3.94-3.38c.19-.1.35-.39.16-.88s-.49-.78-.86-.68a3.39,3.39,0,0,1-2.59-.45,47.76,47.76,0,0,1-5.38-4.85,7.32,7.32,0,0,1,2.23-3.83,8.09,8.09,0,0,1,5.86-2.55c3.24,0,6.77,1.63,9.92,4.7,2.46,2.4,3.73,4.88,3.76,7.37a9.4,9.4,0,0,1-3.07,6.7c-3.57,3.66-5.68,4-9.05,3.49-.4-.08-.69.59-.75.72-.21.55,0,.77.11.85,1.14.66,3.53,3.84,4.22,5.26a.68.68,0,0,0,.51.4.74.74,0,0,0,.66-.21l1.2-1.57,2.6-2.47,3.43-3.29c4.23-4.34,6.28-8.74,6.26-13.45-.05-4-1.86-7.83-5.37-11.24-6.69-6.53-15.37-6.29-22.1.62"/><path d="M270.75,293.15l0,0-.9.87a18.05,18.05,0,0,1-2.53,2.18l-2.38,1.38-1.07.6c-.34.23-.15.83-.12.9.12.36.34.56.61.55a4.22,4.22,0,0,1,2.17.65c1.21.95,4.1,4.82,9.3,12.46l-11.63-2.1-6-1.09c-3.42-.64-7-1.3-10-1.75-.45-.09-1,.41-1.19.69a.82.82,0,0,0-.22.83c1.36,2.5,2.7,4.71,4.11,7.05l3.34,5.61c3.63,6.27,5.72,10,6.29,11.7a3.6,3.6,0,0,1-.1,2.29c-.21.36.14.82.38,1s.6.25.71.18l.29-.22a34.23,34.23,0,0,1,7.16-4.27c.13-.06.34-.22.29-.68,0-.24-.17-.86-.57-.94a4,4,0,0,1-2.37-.88c-1-1-3.73-5.11-8.16-12.59,2.52.3,5.15.76,10.51,1.75a92,92,0,0,1,14.23,3.75l.17.06.12-.13a43.42,43.42,0,0,1,7-5.51c.25-.17.26-.52.06-1-.12-.25-.37-.66-.69-.57a4.21,4.21,0,0,1-2,.15c-1.6-.31-3.66-2.56-8.86-9.67-3.36-4.65-6-8.77-6.63-10.51a2.5,2.5,0,0,1,.05-1.86.73.73,0,0,0-.31-.82,1,1,0,0,0-1.07-.15"/><path d="M127.94,315.91a4,4,0,0,1,2.17,5.5,4,4,0,0,1-5.56,2,4.13,4.13,0,0,1-2.23-2.28,4.2,4.2,0,0,1-.27-1.71,3.87,3.87,0,0,1,.31-1.32,4.31,4.31,0,0,1,2.36-2.35,4.16,4.16,0,0,1,3.22.14"/><path d="M122.16,329a4,4,0,0,1,2.17,5.5,4,4,0,0,1-5.56,2,4,4,0,0,1-2.16-5.36,4.22,4.22,0,0,1,2.31-2.31,4.17,4.17,0,0,1,3.24.16"/><path d="M148.15,317.75h0a14.22,14.22,0,0,1-4.74.75,51,51,0,0,1-5.49-.24.87.87,0,0,0-.8.74.65.65,0,0,0,.21.78,2.8,2.8,0,0,1,1.38,2.54c.13.89-.82,4.88-2.35,9.93-1.46,4.81-2.92,8.63-3.81,9.95a2.81,2.81,0,0,1-1.95,1.54.91.91,0,0,0-.48,1c0,.4.17.68.42.75l2.28.49,3.67.82c1.3.4,3.33,1.27,5.12,2.05a.75.75,0,0,0,.9-.27,1,1,0,0,0,.17-1.11,4.26,4.26,0,0,1-1-3.26c.07-1.89,1.11-5.69,2.79-11.21a133.08,133.08,0,0,1,4.91-14.14.66.66,0,0,0-.14-.73,1.07,1.07,0,0,0-1-.35"/><path d="M173.47,330c0,.14,0,.28,0,.42a6.08,6.08,0,0,1-3.82,4.39c-4-1.75-5.82-3.71-5.7-6.15l0-.32a3.93,3.93,0,0,1,1.43-2.67,4.74,4.74,0,0,1,3.55-.83c3.54.42,4.66,2.86,4.54,5.16m-2.7,16.4c-.31,2.69-2.63,4.32-5.63,4a5.21,5.21,0,0,1-4.86-5.52l0-.39a6,6,0,0,1,3.09-4.71c2.38,1,7.55,3.3,7.39,6.47a1.23,1.23,0,0,1,0,.19m8.78-15.2c0-.21,0-.41,0-.61.25-4.88-3.61-8.24-10.46-9.05A12.89,12.89,0,0,0,159.8,324a8.36,8.36,0,0,0-3.28,5.64c0,.25-.05.49-.06.73a7.73,7.73,0,0,0,3.24,6.84c-3.49,1.62-5.78,4.29-6.13,7.24,0,.21,0,.42,0,.62-.24,4.76,3.39,8,9.84,8.79,9.33,1.1,14.8-3.28,15.38-8.18q0-.36.06-.72c.17-3.27-1.31-5.64-4.9-8,2.67-1.21,5.3-2.86,5.65-5.78"/><path d="M204.53,321.82h0a51.09,51.09,0,0,1-8.36,1.18c-4.53.35-7.75.18-9.59-.49a1.1,1.1,0,0,0-.87.26.68.68,0,0,0-.24.56,21.44,21.44,0,0,1-.89,7.54.48.48,0,0,0,.33.59c.31.15,1,.23,1.21-.13,1.31-1.94,2.88-2.65,9.79-3.21a128.2,128.2,0,0,1-4.23,20.39c-.81,2.2-2.27,4.33-3.41,5a.54.54,0,0,0-.21.41.85.85,0,0,0,.08.39c0,.06.27.63.65.6A17.52,17.52,0,0,0,195.9,352c2.23-2.11,4-5.78,5.22-10.93l1.47-6.12c.95-4.05,1.85-7.88,3.13-12.31a.61.61,0,0,0-.19-.61,1,1,0,0,0-1-.21"/><path d="M228.19,316.18h0a51.61,51.61,0,0,1-8,2.59c-4.4,1.13-7.6,1.52-9.53,1.18a1.11,1.11,0,0,0-.81.41.68.68,0,0,0-.14.59,21.51,21.51,0,0,1,.42,7.58.49.49,0,0,0,.43.52c.33.09,1,.06,1.17-.33.95-2.14,2.38-3.11,9.09-4.85.21,5.57.12,10.66-.08,14.46a59.29,59.29,0,0,1-.57,6.35c-.42,2.31-1.5,4.66-2.51,5.48a.54.54,0,0,0-.14.33.89.89,0,0,0,.15.47c0,.06.38.57.74.48a17.23,17.23,0,0,0,6.51-4.05c1.84-2.46,2.93-6.39,3.26-11.67l.39-6.28c.24-4.15.47-8.07,1-12.66a.61.61,0,0,0-.29-.57,1,1,0,0,0-1,0"/><path d="M242.86,319.2a4,4,0,0,1,.07,3.11,4.31,4.31,0,0,1-2.41,2.31,4,4,0,0,1-5.37-2,4.31,4.31,0,0,1-.1-3.32,4.18,4.18,0,0,1,2.31-2.25,4,4,0,0,1,5.5,2.19"/><path d="M248.42,332.34a4,4,0,0,1-2.33,5.44,4.05,4.05,0,0,1-5.4-2.1,4.61,4.61,0,0,1-.37-2,3.61,3.61,0,0,1,.28-1.26,4.18,4.18,0,0,1,2.33-2.26,4,4,0,0,1,5.49,2.18"/><path d="M97.63,325.4c-2.25-1-5-2.43-4.73-6.23.22-3.4,3.65-6.64,5.22-6.65,2,0,4,1,6.07,3.14-.37.81-4.83,7-6.56,9.74m23.21-17.85a22.24,22.24,0,0,0-3-1.56,24.12,24.12,0,0,1-2.27-1.15,14.26,14.26,0,0,1-2.31-1.91A17.3,17.3,0,0,0,111,301a.75.75,0,0,0-1,.29,1,1,0,0,0-.24.56.59.59,0,0,0,.16.43,2.53,2.53,0,0,1,.73,2,1.94,1.94,0,0,1-.11.6,73.41,73.41,0,0,1-4.32,7.62l-2.41-1.69a43.3,43.3,0,0,1,.06-5.5,40.92,40.92,0,0,0,0-7.59c-.33-1.76-8.39-7.2-8.39-7.2-.69-.52-2.1-1.66-2.7-2.25a23.84,23.84,0,0,1-2.09-2.42l-1.74-2.06c-.24-.24-.67-.13-1,.1a.83.83,0,0,0-.41.6.52.52,0,0,0,0,.24,2.14,2.14,0,0,1,.14,1,5.21,5.21,0,0,1-.57,2.08c-.66,1.26-2.2,3-6.28,7.12L76,290l-4.64-4.88c1.36-1.33,6.55-5.66,7.45-6.29a3,3,0,0,1,2.58-.63h.09c.41,0,.71-.63.78-.85.14-.43,0-.63-.13-.71A31.06,31.06,0,0,1,78,273a34.23,34.23,0,0,1-2.2-2.86L75,269.12a.8.8,0,0,0-1-.16,1,1,0,0,0-.69,1V270l0,0a4.31,4.31,0,0,1-.38,2.19c-.58,1.3-3.83,4.74-9,9.44-2.82,2.56-7,6.12-8.42,7.06a3.1,3.1,0,0,1-2.43.67l-.53,0a.71.71,0,0,0-.66.51.92.92,0,0,0,.25,1l1.15,1a22.78,22.78,0,0,1,2.42,2.21l.81,1L59,298a.75.75,0,0,0,.87.23.86.86,0,0,0,.57-.74v-.09a3.25,3.25,0,0,1,0-.54,3.72,3.72,0,0,1,.74-1.92c.54-.74,4.75-4.83,6.79-6.71,1.31,1.15,2.5,2.39,3.64,3.6L72.65,293c1.43,1.48,4,4.1,4.94,5.26A75.8,75.8,0,0,1,70.16,305a3.46,3.46,0,0,1-2.18.54.68.68,0,0,0-.72.45.82.82,0,0,0,.21,1l1.36,1.16c.85.7,1.8,1.49,2.72,2.39l.4.39a21.11,21.11,0,0,1,2.83,3,1,1,0,0,0,1.16.14.65.65,0,0,0,.45-.64,4.35,4.35,0,0,1,.48-2.81c.68-1.18,4.7-5.37,7.64-8.44,3.79-3.94,7.79-7.52,8.38-8a3.73,3.73,0,0,1,2.23-1c.77.07.74,1.58.75,2.1.1,4.44,0,8,0,11.78,0,0,0,1.72,0,2.14-3,.11-6.67.75-9,4.38a7.91,7.91,0,0,0-1.38,3.87c-.16,3.11,2,6.11,6.64,9.09,1.41.92,3,1.78,4.43,2.61l3.29,1.9a22,22,0,0,1,3.65,2.78.83.83,0,0,0,1.07,0,.68.68,0,0,0,.36-.82,4.56,4.56,0,0,1,0-3.08,87,87,0,0,1,5.81-10c2.59-4,5.81-8.69,7.09-9.89a4,4,0,0,1,2.64-1,.7.7,0,0,0,.71-.51.85.85,0,0,0-.28-.84"/><path d="M208,102.43a12.75,12.75,0,0,0-1.16-5.31,106.49,106.49,0,0,0-9.29,5.49,102,102,0,0,1,9.21,5.13,8.44,8.44,0,0,0,1.24-5.31m9.47,3.72a8,8,0,0,1-2.83,6.55c4.88,3.42,8.82,6.26,13.14,9.3,2.66-3.76,3.52-7.5,3.55-12.4,0-6.59-5.36-14.7-8.46-17a33.87,33.87,0,0,0-10.54,2.13,15.7,15.7,0,0,1,5.14,11.42M195,89.07c-.57-.19-.69-.72,0-.9,3.19-.79,8.59.52,11.6,2a47.49,47.49,0,0,1,11-1.68,51.07,51.07,0,0,0-29.4-9.42c-9.61,0-19.39,4.64-20.63,12.25a98.65,98.65,0,0,1,20.63,6.82,68.65,68.65,0,0,1,13.19-6.37A14.24,14.24,0,0,0,195,89.07m-23.69,34.3c12.41,6.84,23.29,11.86,32.9,11.91,7.16,0,14.52-3.41,20.32-9.25-4.51-3-9.43-6.64-14.12-10a21.58,21.58,0,0,1-10.9,2.65,77.68,77.68,0,0,1-18.94-2.39c-3.6,3-6,4.89-9.26,7.13M194,105.18c-3.79,2.61-6.34,5.15-9.74,8a31.7,31.7,0,0,0,9.38,1.15c4.71,0,8.06-1.32,9.83-3-4-2.83-6.09-4-9.47-6.1M112,115.31c.06-12,15.48-25.1,43-25C156.58,80,171.5,73.94,186,74c14.88.07,30,7.15,38.42,14.16,20.73.11,34.31,9.89,34.27,17.8,0,3.58-3.47,7-9.12,7-2.07,0-4.61-1.64-4.61-3.37,3.06-1,5.23-2.7,5.23-5.31,0-7.73-7.5-12-21.25-12,6,6.06,11.17,14.46,11.11,25.76a18.84,18.84,0,0,1-2.52,9.88,53.91,53.91,0,0,0,11.51,5.22c4.18-7.52,11.5-12.22,19.79-12.17s12.74,3,12.79,7.92c.05,4.29-7.87,10.1-17.66,10-3.39,0-5.35-.11-8.55-.31-.77,3.78-1.27,5.93-1.92,10.28,15.45-.11,27.62,0,35.3,7.8,5.06,5.11,7.13,12.32,7.09,20.42-.07,13-7,26.89-16.77,35.18-9.31,7.91-14.58,12-39.31,12a81.69,81.69,0,0,1-9.56-.59c2.08-2.44,2.23-3.93,3.18-7.32,1.16-5.08,2.69-15,4.84-32.35,1.38-11.67,2.5-20.42,3.67-28.33-7.54.15-9.35.63-11.81,2.13a5.69,5.69,0,0,0-2.95,5.07,8.86,8.86,0,0,0,1.77,4.49c-1.9,2.25-6.63,5.47-9.09,7-.94-1.13-2.73-4.49-2.72-6.37,0-3.58,2.9-7.85,8.39-12.16a29.19,29.19,0,0,1,17.58-6.73c1.17-5.83,2.66-8.31,3.86-12a60.52,60.52,0,0,1-12.4-5.27c-5.49,6-15.15,8.67-23.06,8.63-14.7-.07-29.93-4.79-44.58-13.72-9.64,6.17-17.73,8.86-28.47,8.81-11.49-.06-19.36-4.09-23.28-10.14-4.52,7.5-5.7,13.87-7.23,22,13.67.06,21.13,1.27,25,4.84a12.39,12.39,0,0,1,3.9,8.26c-.05,10.18-5.92,17.14-15.94,24.44,6,10,19.28,33.51,28.07,48.06a144.45,144.45,0,0,1,18.72-1c15.64.08,36.4,4.17,48.79,13.46,9.43-3.16,18-5.29,24.54-5.25,13.94.07,21.69,4.05,21.66,10.27,0,10.17-14.75,19.3-34.82,22.07-5.06,15.93-27.86,24-44.21,23.91-23.55-.11-38.24-9.09-41.38-20.6a39.92,39.92,0,0,1-4.78.3c-17.34-.09-29.75-8-29.69-18.52,0-10.18,10-18.54,28.51-22.41-12-19.65-21.32-36.15-26.74-44.84-2.64,0-6.9.12-8,.12C100,201.85,99,210.55,98,216.77a43.49,43.49,0,0,0,9.68-.71c-.77,2.44-4.56,6.45-6.85,7.79-1.38.81-5.11,1.09-9,1.19-4,0-8-.09-9.87-.16a31.11,31.11,0,0,0,4.2-8.11c.89-2.87,2.73-15.45,5.2-31.29,2.49-16,3.75-24.7,4.72-31.64-5.28,0-8.15.36-10,1.77-1.54,1.17-2.34,3.55-2.36,6.38a10.21,10.21,0,0,0,.71,3.42c-2.27,1.5-6.68,3.77-9.32,5.08a9.19,9.19,0,0,1-1.66-5.2,11.85,11.85,0,0,1,3.9-8.26c5.43-5.19,12.55-7.88,19.71-9,2.7-12.8,7.86-21.87,15.62-28a18.71,18.71,0,0,1-.67-4.7m25.41-1.19a28.23,28.23,0,0,0-13.15,3.19c.89,7.92,6.58,14.48,14.3,14.52,5.47,0,9.8-1.87,20-9.92-7.7-4.75-14-7.76-21.16-7.79m.31-3.63c6.78,0,14.44,2.22,25.15,7.92,2.64-1.87,4.06-3.32,7.08-5.75-9-4.38-14.49-10.41-14.83-18.51-9,0-15.66,1.69-20.67,4.39-5.85,3.14-9.57,8.27-10.1,14.43,4.56-1.46,8.47-2.51,13.37-2.48m29.4-15.41c0,6.6,2.65,10.31,7.35,13.72,3.21-2.62,6.57-5.51,10.36-8.32-6.21-2.85-17.71-5.4-17.71-5.4m95.62,40.51c4.34,0,10.49-3,10.49-7.48,0-2.08-2.3-4-5.13-4-5.45,0-9.92,3.14-11.91,10.89a37.23,37.23,0,0,0,6.55.62m-13.63,48.95c-1.78,17-2.55,24.24-3,30.45,11,1.58,22,.89,28-4.72,5.26-4.87,9.87-16.36,9.92-26.91,0-8.86-1.71-15.41-6-20-6-6.24-10.43-7.29-25.5-7.55-1.17,8.47-2.44,20.59-3.42,28.69m-94.92,89.6c1.7,8.75,14.05,18.22,30.87,18.3,17.15.08,27.65-8.73,30.64-18.6-2.84.12-5,.14-8,.12-2.45,0-4.95,0-7.59-.25-2.84,4.32-8.91,6.9-16.07,6.86-4.14,0-8.81-2.21-10.7-5.09-.29-.45,0-1.45.61-1.1a11.71,11.71,0,0,0,6.55,1.77c2.92,0,6.81-1.16,8.72-3.37a81.2,81.2,0,0,1-16.76-4.48,176.32,176.32,0,0,1-18.3,5.84m53.54-4.25c3,0,5.66-.09,8.48-.07a26.82,26.82,0,0,0-5.75-18c-4,1.47-6.63,2.63-10.58,4.45a13.27,13.27,0,0,1,3.48,8.86,14.32,14.32,0,0,1-.65,4.49,46.93,46.93,0,0,0,5,.29m-47.93-20.48a48.71,48.71,0,0,1,16.88-3c8.86,0,15.86,2.75,20.36,6.73,4-1.68,6.87-2.9,10.59-4.43-8.25-8.33-21.54-13.32-40.38-13.42A117.94,117.94,0,0,0,151,236.52c3.56,5.49,5.85,8.95,8.8,12.89m-6.14,20.36c5.31-1,8.09-2.3,13.87-4.37a52.25,52.25,0,0,1-11-6.84,16.52,16.52,0,0,0-2.83,11.21m-12.16.24c0-6.6,3.47-11.17,9.33-15.29a75.85,75.85,0,0,1-12.09-15.14c-11,3.36-18.46,9.28-18.5,17.31,0,5.09,2.71,14.94,17,15,1.13,0,2.79-.12,4.2-.06,0-.57.06-1.46.06-1.83m50.35-1.42a9.89,9.89,0,0,0,.59-3.54,15.8,15.8,0,0,0-.83-5.08c-4.34,2.06-8.2,3.84-12.1,5.38a44,44,0,0,0,12.34,3.24m-17-5.46c4.72-2.23,9.24-4.16,15-6.88-2.8-4-6.92-6.28-13.51-6.31-5.65,0-9.51,1-13.28,3.25a41.25,41.25,0,0,0,11.77,9.94m74.46-9.53c0-5.09-4.78-8.41-11.57-8.44a60.61,60.61,0,0,0-18,3.1c4.16,3.59,9,10.16,8.94,17.48,0,.38,0,1.55,0,2.53,10.25-1.64,20.67-6.78,20.71-14.67M102.75,183a29.46,29.46,0,0,0,6.37.36,20.47,20.47,0,0,0,8.27-1.66c4.86-2.58,8.21-7.92,8.26-14.64.06-7.17-5.25-12.57-18.62-12.66-1.3,9-3.12,20-4.28,28.6m71.9,32.11c-.83,4-2.37,5.9-6.26,8-1.9,1-8,1.24-19.84,1.18a36.77,36.77,0,0,0,3.19-8.26c.88-4,2-9.58,4.25-25.5,2.36-16.71,3.54-25.62,4.49-32.7a54.28,54.28,0,0,0-10.63.47c1.52-2.44,5.61-6.52,7.2-7.32s4.59-1.77,17.48-1.77c-2,5.55-4.49,19-6.85,36s-3.15,21.89-4.13,30.92c3.39,0,8.5.12,11.1-1.06m46.15-62.68a42.52,42.52,0,0,1-8.26,9.09c0-2.39-4.4-5.65-9.44-5.67-4.22,0-8.25,1.93-8.27,6.85,0,7.91,3.55,10.94,9.92,17.94,7.5,8,12.66,13.67,12.63,20.07-.07,13.38-15.12,24.5-27.74,24.44-2.45,0-7.17-.87-8.86-2,0-4.52,3.23-9.85,6.26-13.22,1.12,3.4,6.09,6.84,12.87,6.84,3.89,0,8.59-2.94,8.61-8,0-4.58-5-11.25-12.39-18.89-7.12-7.2-11-12.51-11-19.48.07-13.75,14.46-22.37,26.33-22.31,4.33,0,8,2.1,9.32,4.37"/></svg>