<?xml version="1.0" encoding="utf-8"?>
<!-- Generator: Adobe Illustrator 24.0.3, SVG Export Plug-In . SVG Version: 6.00 Build 0)  -->
<svg version="1.1" id="Layer_1" xmlns="http://www.w3.org/2000/svg" xmlns:xlink="http://www.w3.org/1999/xlink" x="0px" y="0px"
	 viewBox="0 0 97.2 127.5" style="enable-background:new 0 0 97.2 127.5;" xml:space="preserve">
<style type="text/css">
	.st0{fill:#078D96;}
</style>
<path class="st0" d="M86.8,127.5l-10-8.7c4.8-6,7.8-12.3,7.8-20c0-6-2.3-9.7-6.1-9.7h-0.2c-3.6,0-5.4,2.3-8.2,13.5
	c-3.3,13.5-6.9,22.2-19.7,22.2h-0.2c-11.7,0-19.4-9.8-19.4-23.4c0-9.8,2.9-18.1,8.2-24.9l10.7,7.7c-4,5.9-6.4,11.8-6.4,17.4
	c0,5.6,2.5,8.6,5.6,8.6h0.2c4.2,0,5.6-2.9,8.5-14.4c3.4-13.6,8.1-21.2,19.3-21.2h0.2c12.8,0,20,10.1,20,24.6
	C97.2,109.3,93.8,119.5,86.8,127.5"/>
<polygon class="st0" points="0,74.8 0,20 13.7,20 13.7,58.9 27.8,58.9 27.8,24.7 41.5,24.7 41.5,58.9 56.1,58.9 56.1,19.5 
	69.8,19.5 69.8,74.8 "/>
<rect x="16.3" class="st0" width="64.4" height="14.7"/>
</svg>
